<?xml version="1.0" encoding="UTF-8"?>
<svg id="Layer_1" data-name="Layer 1" xmlns="http://www.w3.org/2000/svg" viewBox="0 0 31.45 31.27">
  <path d="M19.39,3.72l2.16.88c.97-1.01,1.96-2.06,3.48-1.32.43.21,2.46,2.24,2.82,2.69.67.86.62,1.93-.04,2.78-.15.19-1.05.99-1.03,1.11l.88,2.12c1.53-.15,3.31.11,3.5,1.97.08.79.09,2.71-.02,3.49-.24,1.77-2.02,1.98-3.48,1.85l-.88,2.16c1.01.98,2.07,1.94,1.32,3.48-.21.43-2.63,2.85-3.06,3.06-.83.4-1.69.27-2.4-.28-.19-.15-.99-1.05-1.11-1.03-.67.38-1.39.65-2.12.88.15,1.53-.11,3.31-1.97,3.5-.79.08-2.71.09-3.49-.02-1.77-.24-1.98-2.02-1.85-3.48l-2.16-.88c-.96,1-1.96,2.06-3.48,1.32-.43-.21-2.46-2.24-2.82-2.69-.67-.86-.62-1.93.04-2.78.15-.19,1.05-.99,1.03-1.11l-.88-2.12c-1.53.15-3.31-.11-3.5-1.97-.08-.79-.09-2.71.02-3.49.24-1.77,2.02-1.98,3.48-1.85l.88-2.16c-1.16-1.04-2.26-2.37-1.05-3.89.37-.46,2.35-2.44,2.78-2.65.85-.41,1.72-.26,2.44.31.19.15.94,1.02,1.07,1l2.12-.88c-.15-1.53.11-3.31,1.97-3.5.74-.07,3.24-.09,3.87.12,1.55.5,1.53,2.02,1.47,3.38ZM29.46,13.66c-.45-.46-1.97-.1-2.61-.24-.15-.03-.31-.18-.38-.31-.21-.36-.4-1.26-.6-1.74-.15-.35-.79-1.42-.79-1.69,0-.9,2.4-1.72,1.55-2.86-.21-.28-1.92-2.01-2.17-2.16-.41-.26-.74-.1-1.06.17-.38.31-1.2,1.37-1.6,1.43-.38.05-1.34-.58-1.76-.76-.39-.16-1.73-.53-1.91-.71-.68-.72.53-2.96-1-3.13-.61-.07-2.29-.07-2.88,0-1.37.18-.34,2.28-.88,3.04-.2.29-1.32.52-1.73.68-.43.17-1.61.87-1.93.86-.89-.05-1.66-2.34-2.76-1.56-.24.17-2.06,1.98-2.2,2.2-.65,1.03,1.49,1.9,1.6,2.66.05.38-.58,1.34-.76,1.76-.16.39-.53,1.73-.71,1.91-.72.68-2.96-.53-3.13,1-.07.61-.07,2.29,0,2.88.2,1.46,2.66.17,3.22,1.05.2.58.36,1.17.6,1.74.14.34.79,1.43.79,1.68-.03.95-2.39,1.72-1.55,2.86.21.28,1.92,2.01,2.17,2.16,1.03.65,1.9-1.49,2.66-1.6.38-.05,1.34.58,1.76.76.39.16,1.73.53,1.91.71.68.72-.53,2.96,1,3.13.61.07,2.29.07,2.88,0,1.46-.2.18-2.71,1.05-3.22.32-.19,1.18-.36,1.61-.53.38-.15,1.57-.85,1.82-.85.73,0,1.65,1.83,2.39,1.76.13-.01.32-.11.43-.19.24-.17,2.06-1.98,2.2-2.2.65-1.03-1.49-1.9-1.6-2.66-.05-.38.58-1.34.76-1.76.16-.39.53-1.73.71-1.91.72-.68,2.96.53,3.13-1,.06-.53.07-2.64-.07-3.09-.03-.1-.09-.22-.16-.29Z"/>
  <path d="M14.96,9.81c5.38-.55,8.73,5.53,5.24,9.64-3.03,3.57-8.91,2.25-10.13-2.25-.91-3.36,1.37-7.03,4.89-7.39ZM15.23,11.25c-5.61.57-4.91,9.24.87,8.78s5.08-9.39-.87-8.78Z"/>
</svg>